<?xml version="1.0" encoding="utf-8"?>
<!-- Generator: Adobe Illustrator 25.0.1, SVG Export Plug-In . SVG Version: 6.00 Build 0)  -->
<svg version="1.1" xmlns="http://www.w3.org/2000/svg" xmlns:xlink="http://www.w3.org/1999/xlink" x="0px" y="0px"
	 viewBox="0 0 128 128" style="enable-background:new 0 0 128 128;" xml:space="preserve">
<style type="text/css">
	.st0{display:none;}
	.st1{display:inline;}
	.st2{fill:#FFFDFD;}
</style>
<g id="Layer_2" class="st0">
	<rect class="st1" width="128" height="128"/>
</g>
<g id="Layer_3">
	<path class="st2" d="M86,30.58l16-11c0,0,26.27,27.41,15,63c-9,28.42-45,35-45,35v10l-23-16l23-16v8c0,0,22.23-7.91,30-25
		C110,61,102,43,86,30.58z"/>
	<path class="st2" d="M42,97.56l-16,11c0,0-26.27-27.41-15-63c9-28.42,45-35,45-35V0l23,16.56l-23,16v-8c0,0-22.23,7.91-30,25
		C18,67.14,26,85.14,42,97.56z"/>
</g>
</svg>
